<svg width="333" height="25" viewBox="0 0 333 25" fill="none" xmlns="http://www.w3.org/2000/svg">
<line x1="65.7911" y1="12.0573" x2="286.385" y2="12.0573" stroke="#575757" stroke-width="3.75"/>
<line x1="65.7911" y1="12.0573" x2="154.803" y2="12.0573" stroke="white" stroke-width="3.75"/>
<path d="M316.337 13.2281C316.337 16.7321 315.119 18.4841 312.683 18.4841C310.199 18.4841 308.957 16.7321 308.957 13.2281V11.3561C308.957 7.84005 310.199 6.08205 312.683 6.08205C315.119 6.08205 316.337 7.84005 316.337 11.3561V13.2281ZM314.825 11.3561C314.825 8.77605 314.111 7.48605 312.683 7.48605C311.219 7.48605 310.487 8.77605 310.487 11.3561V13.2281C310.487 15.7961 311.219 17.0801 312.683 17.0801C314.111 17.0801 314.825 15.7961 314.825 13.2281V11.3561ZM324.867 14.3621H325.605V15.6401H324.867V18.3221H323.355V15.6401H318.837V14.6861L323.445 6.26205H324.867V14.3621ZM320.241 14.3621H323.355V8.69205L320.241 14.3621Z" fill="white"/>
<path d="M8.28 10.906C8.28 14.41 7.062 16.162 4.626 16.162C2.142 16.162 0.9 14.41 0.9 10.906V9.034C0.9 5.518 2.142 3.76 4.626 3.76C7.062 3.76 8.28 5.518 8.28 9.034V10.906ZM6.768 9.034C6.768 6.454 6.054 5.164 4.626 5.164C3.162 5.164 2.43 6.454 2.43 9.034V10.906C2.43 13.474 3.162 14.758 4.626 14.758C6.054 14.758 6.768 13.474 6.768 10.906V9.034ZM14.5053 16H12.9933V6.334C12.7053 7.042 12.2973 7.66 11.7693 8.188L10.8693 7.648C11.3733 6.928 11.7873 6.262 12.1113 5.65C12.4473 5.038 12.7113 4.468 12.9033 3.94H14.5053V16Z" fill="white"/>
</svg>
